<!DOCTYPE svg PUBLIC "-//W3C//DTD SVG 20010904//EN" "http://www.w3.org/TR/2001/REC-SVG-20010904/DTD/svg10.dtd">
<svg version="1.0" xmlns="http://www.w3.org/2000/svg" width="78px" height="78px" viewBox="0 0 780 780" preserveAspectRatio="xMidYMid meet">
<g id="layer101" fill="#030303" stroke="none">
 <path d="M268 757 c-100 -37 -175 -104 -225 -199 -26 -49 -28 -62 -28 -168 0 -101 3 -121 24 -163 37 -76 111 -150 183 -183 57 -26 73 -29 173 -29 102 0 114 2 168 29 68 35 134 102 174 177 26 50 28 63 28 164 0 101 -2 115 -29 170 -38 76 -111 149 -184 183 -47 22 -73 27 -152 29 -61 2 -108 -2 -132 -10z"/>
 </g>
<g id="layer102" fill="#fefefe" stroke="none">
 <path d="M275 703 c-80 -32 -142 -89 -183 -168 -24 -44 -27 -62 -27 -145 0 -84 3 -101 27 -145 34 -65 89 -120 152 -153 45 -24 62 -27 146 -27 79 0 103 4 142 23 59 30 122 93 156 157 24 44 27 61 27 145 0 84 -3 101 -28 147 -33 63 -96 126 -157 156 -60 29 -196 35 -255 10z m213 -135 c-2 -14 -27 -38 -68 -66 -98 -65 -102 -70 -94 -95 3 -12 8 -23 9 -25 1 -1 30 16 64 40 48 33 64 39 73 30 9 -9 1 -23 -37 -62 -27 -28 -55 -50 -62 -50 -19 0 -16 -37 3 -44 26 -10 122 -7 129 4 10 16 45 12 45 -5 0 -32 -44 -46 -131 -43 l-84 3 -11 35 -12 35 -85 5 c-47 3 -89 8 -92 12 -18 17 12 28 80 28 l74 0 -6 34 c-8 48 6 67 99 130 89 61 111 68 106 34z"/>
 </g>

</svg>