<!DOCTYPE svg PUBLIC "-//W3C//DTD SVG 20010904//EN" "http://www.w3.org/TR/2001/REC-SVG-20010904/DTD/svg10.dtd">
<svg version="1.0" xmlns="http://www.w3.org/2000/svg" width="1200px" height="191px" viewBox="0 0 12000 1910" preserveAspectRatio="xMidYMid meet">
<g id="layer101" fill="#101010" stroke="none">
 <path d="M2445 1874 c-22 -24 -25 -36 -25 -103 0 -70 24 -186 50 -252 17 -40 64 -62 147 -67 l73 -5 0 -106 c-1 -275 -47 -440 -143 -512 -30 -23 -38 -24 -156 -22 -118 3 -126 2 -185 -26 -73 -36 -130 -104 -152 -183 -8 -29 -17 -114 -20 -190 -5 -133 -4 -137 18 -153 l23 -17 -27 5 c-18 2 -28 0 -28 -8 0 -7 12 -10 33 -8 22 2 26 1 14 -5 -17 -7 -17 -9 3 -35 19 -24 19 -26 3 -21 -13 4 -14 3 -5 -4 7 -5 25 -7 39 -4 21 4 25 2 20 -12 -10 -25 63 -22 86 4 20 23 10 26 -19 5 -21 -14 -34 -11 -34 7 0 5 5 6 10 3 17 -11 66 47 84 100 40 117 142 285 172 285 8 0 29 7 45 16 24 12 34 13 45 3 18 -15 18 -30 -1 -55 -15 -18 -15 -18 -9 9 5 22 3 27 -13 27 -61 0 -101 -34 -153 -127 -39 -70 -15 -60 33 14 40 62 90 103 105 88 3 -3 -2 -28 -12 -56 -29 -80 -18 -185 29 -282 21 -43 42 -77 47 -77 5 0 6 4 3 10 -3 6 1 7 10 4 9 -4 14 -12 11 -19 -6 -15 15 -35 64 -61 28 -15 57 -19 140 -19 l106 0 64 42 c81 53 142 111 172 166 19 35 23 56 22 132 0 103 -16 144 -99 250 l-46 60 33 7 c71 15 267 -125 303 -215 l16 -40 18 30 c23 38 68 73 92 73 14 0 19 7 19 28 0 35 23 119 44 157 l16 30 -55 7 c-67 9 -136 31 -194 64 -31 17 -59 24 -97 24 l-54 0 0 38 c0 20 -3 46 -6 57 -5 19 -1 20 73 17 102 -5 144 11 172 67 12 22 21 60 21 84 l0 44 91 5 c69 4 97 10 118 25 61 46 51 115 -30 207 -83 93 -172 136 -278 136 -86 -1 -98 -15 -97 -122 1 -75 -2 -90 -19 -107 -35 -34 -62 -35 -90 -6 -13 15 -24 30 -23 34 1 3 -10 44 -25 91 -25 81 -29 86 -71 108 -54 29 -90 65 -114 116 l-19 39 32 28 c64 57 69 113 14 168 l-31 31 -189 0 -190 0 -24 -26z m-280 -1434 c-1 -45 -5 -56 -29 -77 -18 -15 -34 -22 -45 -17 -9 4 -24 6 -33 6 -10 0 -18 6 -18 14 0 17 12 18 27 3 7 -7 23 -9 38 -5 28 7 56 57 54 98 0 19 -3 16 -14 -12 l-13 -35 -1 36 c-1 20 2 39 6 43 17 16 28 -5 28 -54z m50 -69 c8 -14 -26 -95 -52 -125 -13 -14 -30 -26 -39 -26 -12 0 -10 5 9 20 32 25 70 102 61 124 -6 17 11 23 21 7z m-168 -78 c-3 -10 -5 -2 -5 17 0 19 2 27 5 18 2 -10 2 -26 0 -35z m466 -83 c4 -17 3 -19 -9 -9 -8 6 -14 18 -14 26 0 20 16 8 23 -17z"/>
 <path d="M6202 1859 c-85 -27 -149 -67 -164 -104 -7 -16 -12 -62 -12 -100 1 -78 29 -142 92 -216 l34 -39 83 0 c94 0 96 -2 122 -85 22 -71 8 -245 -21 -245 -5 0 -24 12 -40 28 -21 18 -24 20 -12 4 33 -38 9 -36 -26 4 l-35 37 -34 -19 c-19 -10 -36 -20 -38 -22 -3 -1 6 -13 18 -26 30 -32 40 -159 18 -224 l-15 -42 63 0 62 0 13 -47 c23 -89 45 -148 78 -207 32 -57 32 -61 21 -112 -19 -85 7 -191 68 -270 28 -38 129 -110 166 -119 15 -4 30 -11 33 -16 9 -16 94 -10 137 10 87 40 123 106 106 195 -11 62 1 132 32 182 27 45 24 60 -13 68 l-33 7 38 35 c68 65 70 70 62 199 -4 63 -10 113 -14 111 -3 -2 -11 7 -18 20 -13 28 -7 30 21 7 21 -18 21 -18 2 5 -11 13 -30 22 -46 22 -27 0 -27 2 -23 44 6 47 -10 110 -35 138 -16 20 -13 22 43 31 105 18 119 42 125 216 l5 136 94 15 95 15 14 43 c19 57 9 87 -36 116 -51 33 -107 39 -313 30 l-179 -7 0 -132 c0 -145 -2 -151 -59 -157 -31 -3 -34 -1 -53 47 -26 66 -72 113 -127 129 -40 11 -46 17 -59 56 -14 40 -13 44 4 57 73 51 82 92 34 146 -52 59 -160 73 -278 36z m734 -989 c0 -11 -6 -20 -13 -20 -17 0 -17 27 0 33 6 3 12 6 12 6 1 1 1 -8 1 -19z"/>
 <path d="M4389 1860 c-60 -8 -86 -26 -113 -79 -18 -34 -21 -123 -5 -152 5 -11 12 -50 15 -87 5 -67 19 -99 58 -137 18 -17 33 -20 115 -18 l94 1 -6 -96 c-8 -121 -47 -310 -77 -372 -4 -8 -47 -27 -96 -42 -77 -24 -97 -36 -149 -84 -33 -31 -83 -78 -112 -104 -60 -56 -78 -88 -88 -152 -11 -73 1 -107 43 -125 21 -9 48 -12 68 -8 27 5 33 3 28 -8 -3 -9 -13 -13 -26 -9 -19 5 -20 2 -14 -32 6 -30 4 -36 -6 -30 -7 4 -4 -2 6 -14 12 -13 27 -20 40 -17 79 15 81 16 66 5 -8 -5 -26 -10 -40 -11 -14 0 -19 -3 -12 -6 6 -2 12 -10 12 -17 0 -31 36 -46 106 -45 59 1 65 2 37 10 -18 5 -34 13 -37 17 -7 12 124 -4 137 -17 8 -8 7 -11 -4 -11 -8 0 -20 5 -27 12 -6 6 -14 9 -17 7 -11 -12 135 -139 200 -175 66 -37 74 -39 155 -38 102 1 156 22 220 86 103 103 143 204 121 311 -13 63 -72 186 -97 200 -29 17 -12 27 46 27 72 0 118 20 149 65 28 41 72 60 179 76 l82 13 -22 25 c-31 35 -54 79 -63 118 -3 18 -10 35 -13 37 -4 2 -25 -5 -47 -15 l-40 -20 -26 31 -26 31 -36 -36 c-27 -27 -43 -35 -71 -35 -36 0 -36 0 -36 43 0 23 -3 52 -6 65 -6 21 -4 22 64 22 113 0 160 32 171 115 l6 40 88 0 c85 0 90 2 113 28 41 48 29 137 -26 184 -14 12 -28 22 -32 23 -4 0 -42 21 -85 47 -77 46 -80 47 -163 48 l-85 0 -20 -40 c-10 -22 -21 -66 -23 -98 -5 -69 -24 -87 -93 -87 -43 0 -49 -3 -61 -30 -22 -50 -31 -34 -24 39 9 93 -8 135 -66 161 -24 11 -48 20 -55 20 -11 0 -115 102 -121 120 -2 4 16 15 40 25 107 42 114 95 24 178 -30 26 -33 27 -146 26 -63 -1 -140 -5 -171 -9z m418 -1271 c6 -6 37 -19 69 -30 57 -19 57 -19 15 -14 -24 3 -56 12 -72 21 -29 14 -29 14 -29 -14 0 -28 0 -29 58 -26 l57 3 -50 -7 c-27 -4 -56 -11 -62 -15 -10 -6 -13 4 -13 42 0 51 6 61 27 40z m140 -86 c-3 -3 -14 0 -24 7 -16 10 -16 11 0 6 12 -4 17 1 18 17 2 21 2 21 6 -1 3 -13 2 -26 0 -29z"/>
 <path d="M1122 1850 c-34 -14 -42 -50 -42 -198 -1 -75 -5 -156 -9 -180 -10 -51 -54 -101 -111 -127 -36 -16 -40 -16 -74 0 -69 33 -73 47 -81 271 l-7 202 -42 -5 c-114 -12 -231 -36 -252 -51 -40 -29 -36 -93 9 -139 25 -27 39 -33 73 -33 44 0 66 -13 39 -24 -12 -4 -15 -29 -15 -137 l0 -132 80 -163 c76 -153 80 -166 80 -228 l0 -66 -38 0 c-38 0 -39 1 -81 84 -83 164 -193 265 -258 237 -16 -7 -43 -25 -61 -42 -31 -28 -52 -89 -94 -269 -2 -12 11 -16 71 -18 l74 -3 58 -59 c78 -78 175 -150 259 -191 78 -39 78 -38 59 -161 -8 -52 -8 -87 1 -137 18 -99 58 -154 145 -199 42 -22 63 -26 135 -26 122 0 178 32 231 134 21 41 23 58 23 180 0 74 -3 147 -7 163 -7 26 -7 27 37 27 62 0 112 24 144 70 15 22 30 39 34 40 15 1 19 -79 4 -107 -12 -25 -13 -41 -3 -108 l13 -78 17 26 c9 14 17 30 17 35 0 5 7 15 15 22 13 11 21 8 49 -19 49 -48 69 -39 80 32 8 53 11 58 40 65 50 13 45 43 -27 159 -91 146 -75 135 -186 129 -53 -3 -123 -8 -156 -11 -58 -6 -61 -5 -101 29 l-41 35 -6 152 c-5 139 -4 155 13 179 44 62 60 129 60 258 l0 122 50 0 c77 0 116 21 129 67 12 44 14 123 3 139 -7 10 -192 48 -282 58 -25 3 -55 1 -68 -4z"/>
 <path d="M8890 1813 c-38 -5 -60 -19 -60 -37 0 -7 29 -43 64 -82 l64 -70 3 -109 4 -110 -98 -3 c-96 -3 -100 -2 -125 24 -67 67 -172 114 -257 114 -43 0 -156 -27 -169 -41 -16 -15 -56 -11 -56 6 0 9 -20 35 -43 59 -68 68 -151 84 -177 36 -6 -11 -13 -48 -16 -83 -6 -61 -5 -64 59 -187 65 -124 66 -125 99 -123 213 16 210 16 268 -10 80 -37 117 -76 125 -134 4 -27 16 -77 26 -112 13 -43 16 -68 10 -74 -16 -16 -118 -21 -151 -7 -17 7 -44 28 -59 47 l-28 34 -6 -35 c-14 -87 -69 -144 -127 -131 -36 8 -70 -2 -70 -19 0 -7 12 -30 26 -51 22 -34 25 -45 20 -89 l-7 -51 49 3 c55 4 70 -8 81 -61 l7 -32 24 48 c33 65 107 133 161 147 41 11 126 8 163 -6 8 -3 38 -42 65 -86 l50 -81 -21 -51 c-15 -37 -21 -76 -21 -142 -1 -83 1 -95 25 -132 76 -114 245 -189 342 -152 43 16 151 136 190 209 31 60 36 78 36 138 0 60 -4 76 -31 119 -17 27 -41 60 -54 74 -21 23 -42 70 -32 70 3 0 41 7 84 15 43 8 115 15 161 15 129 0 151 25 62 70 -58 29 -67 45 -47 83 15 30 21 60 18 99 -1 10 -12 25 -26 34 -21 14 -31 14 -73 4 -41 -11 -52 -10 -79 4 -17 8 -34 25 -38 36 -10 30 -22 24 -45 -20 -23 -45 -91 -100 -124 -100 -16 0 -27 13 -45 53 -14 28 -39 82 -57 119 -44 91 -49 108 -30 108 24 0 196 90 233 123 43 38 73 96 73 140 0 43 -37 113 -87 163 l-38 39 93 5 c83 4 96 8 113 29 24 30 24 52 -2 84 -40 52 -89 64 -285 70 -98 2 -195 3 -214 0z"/>
 <path d="M10355 1793 c-167 -3 -181 -5 -202 -25 -29 -27 -29 -69 0 -95 12 -12 58 -40 102 -63 44 -24 86 -50 93 -58 6 -9 12 -42 12 -73 0 -44 7 -70 30 -114 17 -31 30 -59 30 -61 0 -2 -13 -4 -29 -4 -16 0 -31 -6 -34 -12 -3 -9 -14 -4 -31 15 -52 53 -164 29 -225 -49 -17 -22 -21 -40 -21 -101 0 -65 3 -79 27 -111 16 -20 30 -39 33 -42 3 -3 32 -38 64 -78 77 -95 207 -216 261 -242 30 -14 62 -20 113 -20 l72 0 0 -62 c0 -43 -7 -78 -21 -108 -16 -33 -22 -67 -23 -127 -1 -76 1 -83 30 -120 39 -48 114 -99 167 -114 66 -18 223 -7 274 19 106 55 164 157 179 315 l7 67 186 3 c320 4 362 -1 400 -47 22 -26 28 -18 27 38 0 40 5 60 19 76 18 20 18 21 -13 53 -36 37 -41 73 -17 131 8 20 14 36 13 36 -2 0 -64 2 -138 4 -74 3 -218 8 -320 13 l-186 8 -52 34 -52 33 0 119 0 119 34 47 c18 27 39 59 46 72 21 40 50 173 50 229 l0 52 56 0 c53 0 59 2 100 44 51 51 58 92 22 126 -58 55 -144 80 -274 80 l-102 0 -17 -67 c-38 -147 -76 -232 -133 -295 -68 -75 -151 -97 -213 -55 -55 37 -71 84 -79 230 -5 79 -13 134 -21 145 -20 26 -42 42 -53 40 -6 -1 -92 -4 -191 -5z m126 -576 c58 -92 71 -135 64 -206 -10 -102 -16 -131 -29 -131 -20 0 -94 82 -111 122 -8 21 -15 59 -15 86 0 55 36 172 53 172 7 0 24 -19 38 -43z"/>
 <path d="M2295 333 c-3 -16 -13 -43 -22 -61 -9 -17 -13 -35 -10 -38 4 -4 11 4 16 17 5 13 16 41 25 63 19 45 19 46 6 46 -5 0 -12 -12 -15 -27z"/>
 </g>
<g id="layer102" fill="#fefefe" stroke="none">
 <path d="M2459 1871 c-34 -27 -38 -121 -9 -236 12 -49 27 -99 33 -112 17 -38 54 -55 137 -60 l78 -6 6 -41 c10 -63 -12 -311 -34 -398 -26 -100 -69 -171 -125 -203 -41 -24 -50 -26 -166 -23 -121 3 -125 2 -178 -27 -29 -16 -66 -45 -82 -65 -41 -49 -69 -146 -69 -236 0 -80 8 -92 53 -80 20 5 24 13 26 53 2 52 12 70 31 58 8 -5 11 -25 7 -58 -3 -40 -11 -56 -32 -75 -17 -14 -34 -21 -44 -17 -32 13 -35 9 -42 -35 -5 -36 -3 -48 10 -58 37 -30 114 27 127 94 6 33 17 43 29 25 6 -11 -23 -87 -47 -121 -14 -19 -30 -26 -70 -30 l-51 -5 24 -27 c25 -28 89 -48 89 -28 0 6 5 8 10 5 17 -11 66 47 84 100 40 117 142 285 172 285 8 0 29 7 45 16 24 12 34 13 45 3 21 -17 17 -37 -12 -64 -14 -13 -30 -42 -35 -64 -12 -52 6 -190 26 -205 12 -9 21 -32 24 -68 1 -4 20 -28 43 -53 61 -65 128 -89 235 -82 78 6 86 8 155 55 133 91 173 153 173 272 0 65 -5 85 -33 142 -18 37 -53 92 -77 122 -25 30 -45 57 -45 60 0 3 13 6 29 6 36 0 79 34 97 76 8 19 14 68 14 115 0 80 -1 83 -36 121 -19 22 -33 43 -29 46 4 4 25 -13 47 -38 39 -44 41 -45 112 -48 118 -6 162 30 171 140 4 47 1 56 -22 80 -19 20 -22 28 -12 28 9 0 26 -11 39 -25 19 -20 33 -25 74 -25 69 1 137 17 152 38 19 25 17 92 -4 127 -30 49 -110 122 -161 146 -61 30 -210 40 -230 15 -9 -10 -11 -25 -5 -43 8 -28 7 -104 -2 -135 -6 -20 -64 -58 -87 -58 -30 0 -54 40 -87 141 -29 90 -35 101 -64 113 -52 21 -103 73 -122 121 l-17 45 -59 0 c-37 0 -57 4 -53 10 3 6 32 10 65 10 54 0 60 3 88 34 51 58 50 87 -1 144 -20 21 -26 22 -203 22 -163 0 -184 -2 -205 -19z m417 -1321 c16 -5 48 -14 72 -20 23 -6 40 -15 38 -19 -7 -10 -166 29 -166 41 0 11 20 10 56 -2z m-77 -142 c15 -42 14 -82 -3 -123 -34 -79 -96 -4 -79 95 12 70 62 87 82 28z m201 13 c21 -40 9 -135 -18 -146 -28 -10 -47 22 -47 79 0 74 39 115 65 67z m-108 -206 c2 -11 13 -24 26 -30 26 -11 29 -25 5 -25 -27 0 -53 31 -53 64 0 32 15 26 22 -9z m-82 6 c0 -17 -43 -41 -72 -41 -16 0 -28 5 -28 10 0 6 13 10 29 10 16 0 34 7 41 15 14 17 30 20 30 6z"/>
 <path d="M4430 1851 l-94 -6 -31 -43 c-34 -50 -37 -87 -16 -227 21 -144 49 -180 139 -180 31 0 75 4 96 9 l39 9 -5 -114 c-6 -110 -46 -324 -71 -379 -10 -20 -30 -30 -100 -51 -85 -24 -94 -30 -193 -118 -116 -102 -138 -132 -155 -207 -16 -70 -6 -101 36 -121 31 -15 36 -15 52 -1 10 8 23 14 28 12 6 -3 28 18 49 46 21 28 41 48 44 46 2 -3 -3 -16 -12 -28 -76 -107 -82 -113 -100 -110 -16 4 -18 0 -12 -28 6 -35 30 -59 57 -60 51 -1 76 14 109 62 19 27 36 45 38 40 2 -6 -13 -33 -32 -60 -20 -27 -36 -54 -36 -59 0 -5 -13 -8 -30 -5 -23 3 -30 0 -30 -12 0 -22 32 -36 81 -36 37 0 40 2 26 12 -15 11 -8 13 40 13 57 0 58 0 81 43 31 55 40 48 14 -11 -15 -34 -17 -48 -8 -57 8 -10 6 -11 -14 -7 -44 10 98 -110 176 -149 60 -30 83 -36 140 -37 76 -1 151 26 210 76 52 44 103 127 120 198 15 60 15 71 0 128 -18 70 -50 129 -107 198 l-39 47 40 41 c21 22 49 62 61 90 25 56 35 159 22 220 -8 34 -13 40 -41 46 -18 4 -36 9 -39 13 -14 14 6 14 57 1 154 -41 260 4 260 110 0 30 -5 37 -57 66 -31 18 -52 34 -46 36 6 2 38 -12 71 -32 55 -32 67 -35 136 -35 64 0 79 3 97 21 18 18 21 30 17 79 -2 32 -10 66 -18 74 -7 9 -58 42 -112 73 -90 51 -107 57 -173 61 -71 4 -73 4 -91 -23 -12 -18 -20 -53 -22 -96 -5 -83 -20 -99 -98 -108 -56 -6 -57 -7 -74 -51 -30 -76 -41 -63 -40 46 2 97 -3 128 -25 150 -17 18 -52 34 -74 34 -11 0 -45 28 -83 71 l-64 70 -68 -15 c-79 -19 -76 -18 -76 -7 0 5 44 19 98 31 194 45 219 80 124 183 -28 30 -46 31 -272 18z m162 -1164 c-18 -5 -51 -30 -73 -55 -42 -48 -48 -48 -24 -3 18 35 72 71 105 70 22 -1 21 -2 -8 -12z m268 -106 c30 -11 65 -20 78 -21 18 0 22 -6 22 -32 l0 -33 -100 0 -100 0 0 51 c0 28 3 54 7 58 8 8 10 7 93 -23z m-75 -187 c12 -27 16 -50 11 -82 -7 -51 -20 -72 -46 -72 -43 0 -62 76 -35 145 21 57 46 60 70 9z m199 4 c22 -32 20 -91 -4 -119 l-20 -24 -20 24 c-12 14 -20 38 -20 60 0 36 22 81 40 81 5 0 16 -10 24 -22z m-74 -235 c22 -6 28 -23 7 -23 -29 0 -57 31 -57 63 l1 32 14 -33 c8 -19 24 -36 35 -39z m-120 38 c0 -15 -42 -41 -67 -41 -13 0 -23 5 -23 10 0 6 11 10 24 10 13 0 29 7 36 15 14 17 30 20 30 6z"/>
 <path d="M4790 551 c0 -28 1 -28 44 -24 25 3 58 1 75 -5 24 -9 31 -8 31 2 0 8 -18 16 -45 19 -25 4 -59 14 -75 22 -30 15 -30 15 -30 -14z"/>
 <path d="M6181 1840 c-94 -34 -127 -62 -141 -119 -19 -80 7 -170 75 -261 26 -35 26 -35 118 -40 l92 -5 29 -59 c43 -86 41 -172 -9 -326 -33 -102 -36 -123 -32 -190 9 -145 87 -319 188 -422 70 -71 135 -108 228 -131 28 -6 51 -17 51 -23 0 -24 79 -84 110 -84 28 0 29 2 20 26 -19 50 -12 155 15 212 14 30 25 55 25 57 0 1 -33 13 -72 25 -55 17 -83 33 -114 64 -22 23 -40 46 -40 53 1 15 16 30 16 15 0 -19 64 -77 106 -96 52 -22 72 -16 119 36 l37 41 -7 111 c-4 61 -12 122 -18 136 -14 28 -43 34 -41 8 1 -10 -4 -18 -12 -18 -8 0 -14 -10 -14 -22 0 -33 -11 -68 -19 -63 -4 2 -3 30 2 62 20 130 19 196 -2 230 -11 18 -32 35 -46 39 -44 11 -27 24 30 24 57 0 116 19 147 47 16 14 18 34 18 158 l0 143 -25 6 c-14 4 -25 11 -25 17 0 7 8 9 23 4 46 -15 84 -15 157 -3 l75 13 14 41 c13 38 13 44 -3 69 -35 53 -70 60 -290 57 -110 -2 -203 -5 -208 -8 -4 -3 -8 -59 -8 -125 0 -66 -5 -129 -10 -140 -7 -11 -26 -21 -50 -25 -37 -6 -39 -8 -33 -35 3 -17 1 -29 -5 -29 -5 0 -15 27 -21 61 -19 111 -73 174 -161 188 -32 6 -35 10 -40 46 l-5 40 -58 -3 c-75 -4 -68 14 9 24 43 5 63 14 90 39 19 18 34 41 34 52 0 30 -42 86 -70 94 -54 15 -194 9 -249 -11z"/>
 <path d="M1133 1840 c-38 -15 -43 -41 -43 -225 l0 -176 -48 -48 c-86 -86 -148 -88 -217 -8 l-35 41 0 188 0 188 -27 0 c-58 -1 -220 -28 -240 -41 -47 -29 -48 -75 -4 -127 17 -19 33 -24 96 -29 81 -6 99 -23 43 -39 l-33 -10 -3 -125 -3 -125 84 -175 c81 -169 83 -176 79 -236 l-4 -63 -46 0 -47 0 -50 97 c-73 141 -153 223 -218 223 -13 0 -42 -13 -64 -29 -38 -27 -41 -34 -71 -148 -18 -66 -32 -123 -32 -126 0 -4 31 -7 70 -7 l69 0 48 -51 c63 -68 187 -159 279 -206 69 -35 75 -40 69 -63 -14 -59 -17 -220 -5 -269 13 -56 62 -131 85 -131 8 0 15 -4 15 -8 0 -20 119 -45 193 -40 66 4 80 9 118 38 43 35 77 97 86 154 13 95 14 134 4 206 -10 78 -44 163 -74 188 -8 7 -51 15 -96 19 -44 3 -81 10 -81 16 0 16 156 0 184 -18 13 -9 34 -36 47 -60 22 -41 27 -45 62 -45 53 0 98 21 130 61 15 19 32 40 38 47 15 18 24 6 37 -47 9 -38 8 -48 -7 -70 -17 -23 -17 -32 -7 -85 l12 -59 23 36 c12 20 25 37 29 37 3 0 23 -16 43 -36 39 -38 59 -38 59 0 0 50 12 86 29 86 10 0 26 6 36 14 24 17 18 32 -68 168 l-62 98 -88 0 c-61 0 -97 -5 -119 -16 -38 -20 -85 -14 -134 17 -59 36 -65 54 -71 208 l-6 141 39 76 39 77 0 136 c0 79 4 139 10 143 6 4 40 8 77 8 58 0 69 3 82 22 19 27 23 168 5 168 -10 0 -222 34 -274 44 -11 3 -30 0 -42 -4z m62 -1295 c29 -28 31 -47 9 -65 -36 -30 -105 30 -83 72 14 25 45 22 74 -7z m-82 -172 c12 -39 2 -95 -21 -124 -16 -19 -21 -20 -41 -9 -21 11 -23 17 -19 75 2 35 10 70 18 79 21 26 53 16 63 -21z m118 -24 c16 -30 6 -115 -16 -139 -39 -43 -70 -7 -63 72 8 74 54 113 79 67z"/>
 <path d="M8892 1800 c-61 -14 -60 -24 10 -98 64 -68 65 -70 71 -138 4 -38 7 -93 7 -121 l0 -53 -105 0 -105 0 10 -26 c6 -14 10 -32 10 -40 0 -27 -19 -4 -31 37 -14 45 -66 97 -131 130 -65 34 -176 38 -268 10 -75 -23 -76 -24 -54 -75 5 -14 4 -17 -5 -12 -6 4 -27 38 -45 74 -26 51 -45 73 -79 94 -95 60 -135 43 -144 -60 -5 -57 -3 -63 58 -186 60 -119 66 -127 89 -122 146 33 202 31 285 -9 81 -39 103 -69 130 -178 46 -186 120 -362 196 -467 l29 -40 109 0 c109 0 109 0 157 35 117 85 134 93 222 109 48 9 124 16 169 16 114 0 144 15 83 40 -75 31 -100 78 -65 124 19 25 19 80 0 96 -10 8 -33 10 -74 5 -63 -7 -92 2 -121 38 -16 19 -17 19 -29 -12 -8 -17 -29 -44 -47 -61 -34 -30 -103 -55 -115 -42 -12 13 -129 274 -129 288 0 7 12 17 28 20 55 14 183 85 226 127 90 86 83 170 -25 278 -31 31 -55 60 -52 62 2 3 48 3 102 0 97 -6 97 -6 119 22 28 35 28 46 0 72 -57 52 -92 61 -278 65 -96 3 -190 2 -208 -2z"/>
 <path d="M11061 1749 c-42 -171 -94 -282 -159 -341 -95 -86 -219 -72 -267 29 -13 27 -20 76 -25 165 -6 92 -12 135 -24 153 l-16 25 -195 0 c-182 0 -196 -1 -215 -20 -45 -45 -20 -79 103 -144 65 -34 99 -46 131 -46 27 0 46 5 49 13 2 6 8 9 12 5 19 -18 -6 -38 -46 -38 l-41 0 7 -77 c6 -75 9 -82 75 -183 38 -58 79 -128 91 -157 20 -48 20 -59 11 -158 -6 -59 -13 -109 -16 -112 -7 -8 -67 31 -98 64 -63 66 -77 182 -33 288 14 33 25 61 25 63 0 1 -13 2 -30 2 -20 0 -30 -5 -30 -15 0 -24 -17 -18 -41 14 -40 54 -136 49 -197 -10 -31 -30 -32 -34 -32 -114 l0 -83 60 -78 c127 -165 293 -315 353 -319 18 -1 58 -2 89 -3 l57 -2 6 -55 c6 -47 4 -64 -18 -113 -71 -159 -32 -272 117 -343 52 -25 74 -29 142 -29 106 0 169 20 222 69 23 22 42 44 42 50 0 6 4 11 9 11 7 0 22 36 20 49 0 2 3 7 9 10 15 10 32 96 32 164 0 63 -1 66 -39 100 -22 20 -58 41 -80 48 -23 7 -41 16 -41 21 0 28 119 -29 156 -76 28 -34 32 -36 92 -36 45 0 61 3 56 12 -5 7 -3 8 6 3 7 -4 105 -10 219 -12 162 -3 209 -7 221 -18 25 -23 30 -18 30 29 0 27 6 48 16 56 13 12 12 16 -10 37 -23 21 -29 34 -41 95 -1 9 1 18 5 20 4 2 11 13 14 26 l7 22 -118 -1 c-65 -1 -158 3 -208 9 -49 7 -132 12 -183 12 -79 0 -100 4 -141 25 -82 41 -91 59 -91 190 0 101 2 114 21 131 63 57 109 188 109 310 l0 84 69 0 c64 0 71 2 100 32 64 66 47 115 -55 157 -47 20 -82 26 -171 29 l-112 4 -10 -43z m-46 -1159 c0 -11 -14 -16 -57 -18 -44 -2 -58 0 -58 11 0 23 12 28 65 25 36 -2 50 -7 50 -18z m-115 -155 c32 -38 14 -157 -27 -172 -47 -18 -70 93 -33 155 21 35 41 40 60 17z m211 -62 c11 -31 5 -83 -16 -124 -34 -64 -80 -35 -73 47 8 91 65 140 89 77z"/>
 <path d="M6185 1122 c-16 -9 -32 -18 -34 -19 -2 -1 8 -16 22 -32 39 -46 53 -125 35 -188 l-15 -51 30 -6 c62 -13 64 -11 70 62 3 37 14 88 23 114 15 38 15 49 5 62 -7 9 -17 13 -22 10 -5 -3 -23 11 -40 30 -36 41 -34 41 -74 18z"/>
 <path d="M5168 959 c-20 -21 -36 -29 -62 -29 -31 0 -36 -4 -41 -27 -17 -84 -38 -134 -76 -177 -23 -26 -37 -51 -33 -57 10 -17 135 -6 171 16 17 10 38 30 46 45 17 28 103 62 194 75 l42 7 -35 62 c-19 35 -34 71 -34 80 0 13 -5 16 -17 11 -73 -29 -75 -29 -95 -2 -24 32 -26 32 -60 -4z"/>
 <path d="M8370 871 c-6 -24 -24 -51 -47 -71 -33 -29 -40 -32 -84 -26 -26 4 -50 2 -53 -3 -3 -5 6 -26 20 -47 22 -32 25 -46 22 -86 l-5 -48 42 0 c41 0 85 -27 85 -52 0 -7 13 8 28 33 31 48 77 91 125 115 22 12 51 15 108 12 44 -2 79 -3 79 -3 0 4 -69 158 -73 161 -3 3 -24 0 -47 -6 -58 -16 -115 -4 -155 32 l-34 29 -11 -40z"/>
 <path d="M3120 781 c-6 -27 -20 -57 -31 -67 -19 -17 -17 -18 48 -55 85 -47 148 -101 183 -156 l28 -43 26 34 c14 19 39 37 55 41 26 5 29 11 35 61 3 31 16 74 27 96 11 22 19 41 17 42 -2 2 -35 8 -74 15 -40 7 -101 27 -140 47 -48 24 -81 34 -115 34 l-47 0 -12 -49z"/>
 <path d="M9201 616 c2 -2 15 -9 29 -16 23 -12 24 -12 11 3 -7 10 -20 17 -29 17 -8 0 -13 -2 -11 -4z"/>
 <path d="M9150 578 c-84 -71 -100 -77 -221 -80 l-113 -3 -19 -60 c-34 -112 -22 -220 32 -286 40 -49 153 -107 224 -115 46 -5 61 -3 89 14 74 46 179 181 199 255 22 81 1 167 -57 236 l-27 32 -28 -27 c-34 -33 -52 -24 -20 10 l22 23 -23 15 c-22 14 -26 14 -58 -14z m90 -187 c14 -26 13 -114 -2 -146 -14 -31 -42 -32 -62 -3 -19 26 -21 106 -4 143 14 30 53 34 68 6z"/>
 <path d="M6416 423 c-9 -52 9 -136 41 -195 52 -96 182 -178 280 -178 30 0 64 5 76 11 31 16 87 71 87 84 0 7 -18 17 -39 24 -36 10 -91 60 -91 81 0 4 -24 13 -52 20 -80 19 -166 68 -231 132 -32 32 -60 58 -62 58 -2 0 -6 -17 -9 -37z"/>
 </g>

</svg>